<!DOCTYPE svg PUBLIC "-//W3C//DTD SVG 1.1//EN" "http://www.w3.org/Graphics/SVG/1.1/DTD/svg11.dtd">
<!-- Uploaded to: SVG Repo, www.svgrepo.com, Transformed by: SVG Repo Mixer Tools -->
<svg width="64px" height="64px" viewBox="0 0 48 48" xmlns="http://www.w3.org/2000/svg" fill="#000000">
<g id="SVGRepo_bgCarrier" stroke-width="0"/>
<g id="SVGRepo_tracerCarrier" stroke-linecap="round" stroke-linejoin="round"/>
<g id="SVGRepo_iconCarrier">
<title>70 Basic icons by Xicons.co</title>
<path d="M24,1A23,23,0,1,0,47,24,23,23,0,0,0,24,1Z" fill="#330769"/>
<path d="M20,32.5a2,2,0,0,1-2-2v-13a2,2,0,0,1,4,0v13A2,2,0,0,1,20,32.5Z" fill="#9363cf"/>
<path d="M28,32.5a2,2,0,0,1-2-2v-13a2,2,0,0,1,4,0v13A2,2,0,0,1,28,32.5Z" fill="#9363cf"/>
</g>
</svg>