<!DOCTYPE svg PUBLIC "-//W3C//DTD SVG 1.1//EN" "http://www.w3.org/Graphics/SVG/1.1/DTD/svg11.dtd">
<!-- Uploaded to: SVG Repo, www.svgrepo.com, Transformed by: SVG Repo Mixer Tools -->
<svg fill="#ffffff" height="800px" width="800px" version="1.1" id="Layer_1" xmlns="http://www.w3.org/2000/svg" xmlns:xlink="http://www.w3.org/1999/xlink" viewBox="0 0 24 24" xml:space="preserve" stroke="#ffffff">
<g id="SVGRepo_bgCarrier" stroke-width="0"/>
<g id="SVGRepo_tracerCarrier" stroke-linecap="round" stroke-linejoin="round"/>
<g id="SVGRepo_iconCarrier"> <polygon points="17,11 17,10 16,10 16,9 14,9 14,7 12,7 12,5 10,5 10,3 8,3 8,2 6,2 6,5 8,5 8,7 10,7 10,9 12,9 12,11 14,11 14,13 12,13 12,15 10,15 10,17 8,17 8,19 6,19 6,22 8,22 8,21 10,21 10,19 12,19 12,18 12,17 14,17 14,16 14,15 16,15 16,14 17,14 17,13 18,13 18,12 18,11 "/> </g>
</svg>